<svg width="200" height="200" viewBox="0 0 200 200" fill="none" xmlns="http://www.w3.org/2000/svg">
<g clip-path="url(#clip0_0_6353)">
<path d="M194.78 2.92969H133.457C132.192 2.92969 131.166 3.95508 131.166 5.21992V36.5375C131.166 38.7527 130.507 40.9176 129.271 42.7562L121.988 53.5949C121.461 54.3793 122.241 55.3816 123.13 55.0633L135.911 50.4906C137.116 50.0594 138.387 49.8387 139.667 49.8387H194.78C196.045 49.8387 197.07 48.8133 197.07 47.5484V5.21992C197.07 3.95508 196.045 2.92969 194.78 2.92969Z" fill="#FFE270"/>
<path d="M194.78 2.92969H186.145C187.41 2.92969 188.435 3.95508 188.435 5.21992V47.5484C188.435 48.8133 187.41 49.8387 186.145 49.8387H194.78C196.045 49.8387 197.07 48.8133 197.07 47.5484V5.21992C197.07 3.95508 196.045 2.92969 194.78 2.92969Z" fill="#FFD250"/>
<path d="M110.748 80.3434H9.65703V53.4754C9.65703 25.5598 32.2871 2.92969 60.2027 2.92969C88.1184 2.92969 110.748 25.5598 110.748 53.4754V80.3434Z" fill="#AD9CA9"/>
<path d="M92.7371 189.258H27.6684C23.5484 189.258 20.2082 185.918 20.2082 181.798V162.31C20.2082 140.221 38.1141 122.316 60.2024 122.316C82.2906 122.316 100.196 140.221 100.196 162.31V181.798C100.197 185.918 96.857 189.258 92.7371 189.258Z" fill="#64CAFF"/>
<path d="M60.2027 136.789C55.7852 136.789 52.2039 133.208 52.2039 128.791V110.102H68.2016V128.791C68.2016 133.208 64.6203 136.789 60.2027 136.789Z" fill="#FFB29F"/>
<path d="M94.3621 82.6727H26.043C22.8207 82.6727 20.2082 80.0606 20.2082 76.8379V54.5047C20.2082 32.4164 38.1141 14.5106 60.2024 14.5106C82.2906 14.5106 100.196 32.4164 100.196 54.5047V76.8379C100.197 80.0606 97.5848 82.6727 94.3621 82.6727Z" fill="#FF8254"/>
<path d="M60.2028 14.5106C58.5656 14.5106 56.952 14.6113 55.3664 14.8024C75.1738 17.1902 90.5246 34.0535 90.5246 54.5047V76.8379C90.5246 80.0602 87.9121 82.6727 84.6899 82.6727H94.3621C97.5844 82.6727 100.197 80.0602 100.197 76.8379V54.5047C100.197 32.4164 82.291 14.5106 60.2028 14.5106Z" fill="#FF6B31"/>
<path d="M60.2027 117.857C42.6746 117.857 28.4652 103.648 28.4652 86.1199V61.9488C28.4652 60.9012 29.2395 60.0183 30.2766 59.8699C38.0707 58.7558 44.4777 56.082 49.8293 52.2219C51.298 51.1625 53.3273 52.3281 53.1488 54.1301L52.4926 60.7601C52.343 62.2699 53.7914 63.4301 55.2363 62.968C59.7773 61.5168 63.9797 58.4281 67.9832 54.3781C69.4254 52.9191 71.8875 54.1473 71.5648 56.1734L70.323 63.9726C70.1305 65.182 71.0074 66.3207 72.2293 66.3988C78.5262 66.8012 83.8191 64.0965 88.1574 58.4375C89.3859 56.8348 91.9394 57.6785 91.9394 59.6976V86.1199C91.9402 103.648 77.7308 117.857 60.2027 117.857Z" fill="#FFE0CF"/>
<path d="M88.1582 58.4375C86.8414 60.1551 85.4352 61.5961 83.9414 62.7652V86.1203C83.9414 102.293 71.8422 115.63 56.2035 117.598C57.5145 117.763 58.8473 117.858 60.2027 117.858C77.7309 117.858 91.9403 103.648 91.9403 86.1203V59.698C91.9403 57.6785 89.3867 56.8352 88.1582 58.4375Z" fill="#FFCFC0"/>
<path d="M8.42695 94.9133L18.6156 97.332L24.6961 83.5688L18.6156 68.4008L8.42695 70.8195C5.20469 71.5844 2.92969 74.4625 2.92969 77.7742V87.9578C2.92969 91.2699 5.20469 94.148 8.42695 94.9133Z" fill="#64CAFF"/>
<path d="M25.9203 102.734H21.1605C19.7551 102.734 18.6152 101.595 18.6152 100.189V65.5434C18.6152 64.1379 19.7547 62.998 21.1605 62.998H25.9199C27.3254 62.998 28.4652 64.1375 28.4652 65.5434V100.189C28.4652 101.595 27.3258 102.734 25.9203 102.734Z" fill="#00B8FF"/>
<path d="M111.979 94.9133L101.79 97.332L95.5891 83.375L101.79 68.4004L111.979 70.8191C115.201 71.584 117.476 74.4625 117.476 77.7742V87.9578C117.476 91.2699 115.201 94.148 111.979 94.9133Z" fill="#64CAFF"/>
<path d="M94.4852 102.734H99.2445C100.65 102.734 101.79 101.595 101.79 100.189V65.5434C101.79 64.1379 100.65 62.998 99.2445 62.998H94.4852C93.0797 62.998 91.9398 64.1375 91.9398 65.5434V100.189C91.9402 101.595 93.0797 102.734 94.4852 102.734Z" fill="#00B8FF"/>
<path d="M145.858 148.244H71.0293C67.7301 148.244 65.0558 145.569 65.0558 142.27V90.5594C65.0558 87.2602 67.7305 84.586 71.0293 84.586H145.858C149.157 84.586 151.831 87.2606 151.831 90.5594V142.27C151.832 145.569 149.157 148.244 145.858 148.244Z" fill="#6C5E69"/>
<path d="M145.648 84.5855H137.266C140.682 84.5855 143.45 87.1691 143.45 90.3562V142.473C143.45 145.66 140.682 148.243 137.266 148.243H145.648C149.063 148.243 151.832 145.66 151.832 142.473V90.3562C151.832 87.1691 149.063 84.5855 145.648 84.5855Z" fill="#574D56"/>
<path d="M124.082 148.244L108.444 138.377L92.8047 148.244L85.6797 164.596H131.207L124.082 148.244Z" fill="#6C5E69"/>
<path d="M126.806 154.494L124.082 148.244H92.8047L90.0813 154.494H126.806Z" fill="#574D56"/>
<path d="M175.826 197.07H41.0613V169.932C41.0613 166.985 43.4508 164.596 46.3981 164.596H170.489C173.436 164.596 175.825 166.985 175.825 169.932V197.07H175.826Z" fill="#F5F0F3"/>
<path d="M170.489 164.596H162.242C165.189 164.596 167.579 166.985 167.579 169.932V197.07H175.825V169.932C175.826 166.985 173.436 164.596 170.489 164.596Z" fill="#E4DFE3"/>
<path d="M157.928 164.596H140.21V163.406C140.21 158.513 144.176 154.547 149.069 154.547C153.961 154.547 157.928 158.513 157.928 163.406V164.596Z" fill="#6C5E69"/>
<path d="M172.06 23.693L159.284 16.3172C157.213 15.1211 154.623 16.616 154.623 19.0082V33.7601C154.623 36.1523 157.213 37.6472 159.284 36.4512L172.06 29.0754C174.131 27.8793 174.131 24.889 172.06 23.693Z" fill="#FF77AB"/>
<path d="M194.78 0H133.457C130.579 0 128.237 2.3418 128.237 5.21992V36.5371C128.237 38.1762 127.754 39.7617 126.84 41.1219L119.556 51.9606C118.613 53.3648 118.676 55.2055 119.715 56.541C120.76 57.8844 122.532 58.3887 124.118 57.8215L136.898 53.2488C137.789 52.9301 138.72 52.7684 139.667 52.7684H194.78C197.659 52.7684 200 50.4266 200 47.5484V5.21992C200 2.3418 197.659 0 194.78 0ZM194.141 46.909H139.667C138.045 46.909 136.45 47.1859 134.924 47.732L127.727 50.307L131.703 44.3902C133.269 42.0598 134.096 39.3441 134.096 36.5371V5.85938H194.141V46.909Z" fill="black"/>
<path d="M170.489 161.666H160.729C159.885 155.988 154.978 151.617 149.069 151.617C143.16 151.617 138.252 155.988 137.409 161.666H133.127L128.555 151.173H145.858C150.767 151.173 154.761 147.179 154.761 142.27V129.11C154.761 127.492 153.45 126.18 151.832 126.18C150.213 126.18 148.902 127.492 148.902 129.11V142.27C148.902 143.949 147.537 145.314 145.858 145.314H71.0293C69.3508 145.314 67.9855 143.949 67.9855 142.27V90.5594C67.9855 88.8809 69.3512 87.5152 71.0293 87.5152H145.858C147.537 87.5152 148.902 88.8809 148.902 90.5594V117.782C148.902 119.4 150.213 120.711 151.832 120.711C153.45 120.711 154.761 119.4 154.761 117.782V90.5594C154.761 85.65 150.767 81.6559 145.858 81.6559H120.406V77.7742C120.406 73.4434 117.688 69.6734 113.678 68.2684V53.475C113.678 23.9887 89.689 0 60.2027 0C43.9352 0 28.7469 7.27695 18.5312 19.9652C17.5164 21.2258 17.7156 23.0695 18.9758 24.0844C20.2367 25.0996 22.0809 24.9004 23.0949 23.6395C32.193 12.3402 45.718 5.85938 60.2027 5.85938C86.4582 5.85938 107.818 27.2199 107.818 53.475V66.8203L104.719 66.0848V65.543C104.719 64.0398 104.11 62.6766 103.127 61.6863V54.5043C103.127 30.8359 83.8707 11.5801 60.2023 11.5801C36.534 11.5801 17.2789 30.8363 17.2789 54.5047V61.6863C16.2949 62.6766 15.6859 64.0402 15.6859 65.543V66.0848L12.5867 66.8203V53.475C12.5867 46.1734 14.1969 39.1664 17.3723 32.6488C18.0809 31.1941 17.4766 29.4406 16.0219 28.732C14.5676 28.0234 12.8137 28.6277 12.1051 30.0824C8.53672 37.4062 6.72734 45.2766 6.72734 53.4754V68.2684C2.71797 69.673 0 73.4434 0 77.7746V87.9582C0 92.6484 3.18711 96.6805 7.75 97.7637L15.6855 99.6477V100.189C15.6855 103.209 18.1418 105.664 21.1605 105.664H25.9199C27.6746 105.664 29.2391 104.835 30.2418 103.547C34.4594 110.77 41.2137 116.339 49.2738 119.023V120.791C40.4723 123.107 32.5211 128.254 26.7703 135.387C20.6492 142.979 17.2785 152.54 17.2785 162.311V164.936C17.2785 166.554 18.5902 167.865 20.2082 167.865C21.8262 167.865 23.1379 166.554 23.1379 164.936V162.311C23.1379 145.83 33.7566 131.622 49.2738 126.879V128.791C49.2738 134.817 54.1762 139.72 60.2023 139.72C60.8476 139.72 61.4918 139.662 62.1254 139.548V142.271C62.1254 147.18 66.1195 151.174 71.0285 151.174H88.3316L83.7598 161.666H46.3984C41.8402 161.666 38.132 165.375 38.132 169.933V186.328H27.6684C25.1703 186.328 23.1379 184.296 23.1379 181.798V176.263C23.1379 174.645 21.8262 173.333 20.2082 173.333C18.5902 173.333 17.2785 174.645 17.2785 176.263V181.798C17.2785 187.527 21.9394 192.188 27.6684 192.188H38.1316V197.07C38.1316 198.689 39.4434 200 41.0613 200C42.6793 200 43.991 198.689 43.991 197.07V169.932C43.991 168.605 45.0707 167.525 46.398 167.525H170.489C171.816 167.525 172.896 168.605 172.896 169.932V197.07C172.896 198.689 174.207 200 175.825 200C177.444 200 178.755 198.689 178.755 197.07V169.932C178.755 165.374 175.047 161.666 170.489 161.666ZM94.8695 65.9277H98.8597V81.6559H94.8695V65.9277ZM111.302 73.6695C113.212 74.123 114.546 75.8109 114.546 77.7746V81.6562H104.72V72.1074L111.302 73.6695ZM60.2027 17.4398C80.6402 17.4398 97.2672 34.0668 97.2672 54.5047V60.0684H94.8695V59.6977C94.8695 57.5086 93.5328 55.6414 91.4641 54.9395C89.3828 54.2328 87.173 54.9074 85.8328 56.6551C82.3035 61.2586 78.2394 63.5082 73.4344 63.5082C73.4105 63.5082 73.3875 63.5082 73.3641 63.5078L74.4586 56.634C74.8031 54.4688 73.7226 52.3492 71.7691 51.3602C69.8066 50.3664 67.448 50.752 65.9 52.3188C62.2805 55.9801 58.8777 58.4223 55.5367 59.75L56.0644 54.4187C56.2617 52.4242 55.3058 50.5641 53.5691 49.5645C51.832 48.5645 49.7422 48.673 48.1156 49.8461C42.8633 53.6348 36.8926 55.9652 29.8621 56.9695C28.0508 57.2285 26.5668 58.452 25.9059 60.0684H23.1383V54.5047C23.1383 34.0672 39.7652 17.4398 60.2027 17.4398ZM9.10351 92.0629C7.19336 91.6094 5.85937 89.9215 5.85937 87.9582V77.7746C5.85937 75.8113 7.19375 74.123 9.10351 73.6695L15.6859 72.107V93.6254L9.10351 92.0629ZM25.5355 99.8047H21.5453V65.9277H25.5355V99.8047ZM31.3949 86.1203V62.6652C38.348 61.5789 44.6133 59.2145 50.057 55.6242L49.5773 60.4719C49.4098 62.1625 50.0984 63.8098 51.4191 64.8777C52.7437 65.9488 54.5031 66.2773 56.1285 65.7594C60.1883 64.4621 64.1816 61.9707 68.2808 58.1699L67.4301 63.5121C67.207 64.9125 67.5871 66.3512 68.473 67.459C69.3488 68.5547 70.6496 69.234 72.0426 69.3227C78.5965 69.7441 84.2933 67.2805 89.0101 62.002V81.6559H71.0289C66.1195 81.6559 62.1258 85.65 62.1258 90.5594V114.864C61.4855 114.907 60.843 114.928 60.2027 114.928C44.318 114.928 31.3949 102.005 31.3949 86.1203ZM60.2027 133.86C57.4074 133.86 55.1336 131.586 55.1336 128.791V120.418C56.7887 120.661 58.4812 120.787 60.2027 120.787C60.8426 120.787 61.4848 120.77 62.1258 120.734V133.484C61.5187 133.733 60.8738 133.86 60.2027 133.86ZM90.1519 161.666L94.7238 151.173H122.163L126.735 161.666H90.1519ZM143.4 161.666C144.145 159.243 146.404 157.477 149.069 157.477C151.733 157.477 153.992 159.243 154.737 161.666H143.4Z" fill="black"/>
<path d="M97.1281 130.631C95.5101 130.631 94.1984 131.942 94.1984 133.561C94.1984 135.179 95.5101 136.49 97.1281 136.49H119.759C121.377 136.49 122.689 135.179 122.689 133.561C122.689 131.942 121.377 130.631 119.759 130.631H97.1281Z" fill="black"/>
<path d="M154.712 38.9887C155.657 39.534 156.694 39.807 157.73 39.807C158.767 39.807 159.805 39.5344 160.75 38.9883L173.525 31.6125C175.415 30.5215 176.544 28.5668 176.544 26.384C176.544 24.2016 175.415 22.2469 173.525 21.1559L160.75 13.7801C158.861 12.6887 156.603 12.6887 154.713 13.7797C152.822 14.8711 151.694 16.8254 151.694 19.0082V33.7602C151.694 35.943 152.822 37.8973 154.712 38.9887ZM157.553 19.0082C157.553 18.9649 157.553 18.9055 157.642 18.8543C157.679 18.8332 157.708 18.8258 157.734 18.8258C157.77 18.8258 157.798 18.8414 157.82 18.8543L170.595 26.2301C170.633 26.252 170.684 26.2813 170.684 26.384C170.684 26.4871 170.633 26.5164 170.595 26.5383L157.82 33.9141C157.781 33.9359 157.73 33.9649 157.642 33.9141C157.553 33.8629 157.553 33.8039 157.553 33.7602V19.0082Z" fill="black"/>
</g>
<defs>
<clipPath id="clip0_0_6353">
<rect width="200" height="200" fill="white"/>
</clipPath>
</defs>
</svg>
