<svg width="200" height="200" viewBox="0 0 200 200" fill="none" xmlns="http://www.w3.org/2000/svg">
<g clip-path="url(#clip0_0_6389)">
<path d="M185.323 20.9395H14.6769C8.19218 20.9395 2.93515 26.1961 2.93515 32.6813V122.701H197.064V32.6809C197.064 26.1961 191.808 20.9395 185.323 20.9395Z" fill="#90CAF9"/>
<path d="M191.585 107.045V65.5578H182.192V20.9395H49.1195V27.9844H8.80624V98.4344H49.1195V114.873H137.573V122.7H141.436L160.705 107.045H191.585Z" fill="#64B5F6"/>
<path d="M143.053 2.93555H56.9473V107.045H143.053V2.93555Z" fill="#FDCC15"/>
<path d="M143.053 107.045V6.84922H119.57V27.9844H56.9473V100V107.045H127.397H137.573H143.053ZM127.397 99.2172H120.744V69.4715H127.397V99.2172Z" fill="#F5B21B"/>
<path d="M112.916 35.8121H16.634V90.6066H112.916V35.8121Z" fill="#1BB9DB"/>
<path d="M2.93555 146.184C2.93555 152.669 8.19219 157.926 14.6773 157.926H185.323C191.808 157.926 197.065 152.669 197.065 146.184V122.701H2.93555V146.184Z" fill="#B0BEC5"/>
<path d="M139.139 181.409H60.8609C56.5375 181.409 53.0332 184.914 53.0332 189.237V197.064H146.967V189.237C146.967 184.914 143.462 181.409 139.139 181.409Z" fill="#E0E0E0"/>
<path d="M127.397 157.926H72.6027V181.409H127.397V157.926Z" fill="#B0BEC5"/>
<path d="M105.871 134.442H94.1293V146.184H105.871V134.442Z" fill="white"/>
<path d="M112.916 82.7789H16.634V90.6066H112.916V82.7789Z" fill="#077FA6"/>
<path d="M94.1293 49.1195L70.6656 74.2418L53.4246 57.3387L19.7652 90.6066H112.916V65.1664L94.1293 49.1195Z" fill="#9CCC65"/>
<path d="M62.6922 82.7789L70.6656 74.2418L65.0746 68.7602L51.9816 82.7789H27.6848L19.7652 90.6066H112.916V82.7789H62.6922Z" fill="#7CB342"/>
<path d="M174.364 14.677H127.397V61.6438H174.364V14.677Z" fill="#F44336"/>
<path d="M158.709 38.1605L143.053 47.9453V28.3758L158.709 38.1605Z" fill="white"/>
<path d="M183.757 73.3856H135.225V99.2172H145.401V109.393L157.926 99.2172H183.757V73.3856Z" fill="#C45E9A"/>
<path d="M146.967 189.237H53.0332V197.064H146.967V189.237Z" fill="#BDBDBD"/>
<path d="M127.397 157.926H72.6027V165.754H127.397V157.926Z" fill="#90A4AE"/>
<path d="M185.323 18.0039H177.3V11.7418H145.988V0H54.0117V18.0039H14.677C6.58398 18.0039 0 24.5879 0 32.6809V146.184C0 154.277 6.58398 160.861 14.677 160.861H69.6672V178.473H60.8609C54.9262 178.473 50.0977 183.302 50.0977 189.237V200H149.902V189.237C149.902 183.302 145.074 178.473 139.139 178.473H130.333V160.861H185.323C193.416 160.861 200 154.277 200 146.184V32.6809C200 24.5879 193.416 18.0039 185.323 18.0039ZM171.429 17.6125V58.7082H130.333V17.6125H171.429ZM109.98 38.7477V58.7984L93.9008 45.0633L70.5727 70.0406L53.416 53.2191L19.5695 86.6727V38.7477H109.98ZM94.3578 53.175L109.98 66.5195V87.6715H62.1398L94.3578 53.175ZM54.1066 87.6711H26.9113L53.4336 61.4574L66.5648 74.3324L54.1066 87.6711ZM139.139 184.345C141.837 184.345 144.031 186.539 144.031 189.237V194.129H55.9688V189.237C55.9688 186.539 58.1633 184.345 60.8609 184.345H139.139ZM75.5383 178.473V160.861H124.462V178.473H75.5383ZM194.129 146.184C194.129 151.04 190.179 154.99 185.323 154.99H14.677C9.82148 154.99 5.8707 151.04 5.8707 146.184V125.636H194.129V146.184H194.129ZM194.129 119.765H5.8707V32.6809C5.8707 27.825 9.82148 23.8746 14.677 23.8746H54.0117V32.8766H13.6984V93.5418H54.0117V104.109H45.2055V109.98H126.223V104.109H59.8824V93.5418H115.851V32.8766H59.8824V5.8707H140.117V11.7414H124.462V64.5789H140.117V70.4496H132.289V102.152H142.466V115.56L158.968 102.152H186.693V70.4496H145.988V64.5789H177.3V23.8746H185.323C190.179 23.8746 194.129 27.825 194.129 32.6809V119.765ZM138.161 96.2816V76.3207H180.822V96.2816H156.883L148.336 103.226V96.2816H138.161Z" fill="black"/>
<path d="M108.806 131.507H91.1938V149.12H108.806V131.507ZM102.936 143.248H97.0648V137.378H102.936V143.248Z" fill="black"/>
<path d="M140.118 23.0793V53.241L164.247 38.1606L140.118 23.0793ZM145.988 33.6719L153.17 38.1602L145.988 42.6484V33.6719Z" fill="black"/>
<path d="M39.3344 104.11H33.4637V109.98H39.3344V104.11Z" fill="white"/>
<path d="M118.395 23.8746H107.045V18.0039H118.395V23.8746ZM101.174 23.8746H73.7769V18.0039H101.174V23.8746Z" fill="white"/>
<path d="M45.2055 50.4891H37.3777V44.6184H45.2055V50.4891ZM31.507 50.4891H25.6359V44.6184H31.5066L31.507 50.4891Z" fill="white"/>
<path d="M82.7078 82.8516L78.4172 78.8445L82.4242 74.5543L86.7148 78.5613L82.7078 82.8516ZM90.7222 74.2703L86.4316 70.2633L94.8555 61.2437L99.1461 65.2508L90.7222 74.2703Z" fill="white"/>
<path d="M175.147 89.2367H169.276V83.366H175.147V89.2367ZM163.405 89.2367H143.836V83.366H163.405V89.2367Z" fill="white"/>
</g>
<defs>
<clipPath id="clip0_0_6389">
<rect width="200" height="200" fill="white"/>
</clipPath>
</defs>
</svg>
