<svg width="200" height="200" viewBox="0 0 200 200" fill="none" xmlns="http://www.w3.org/2000/svg">
<path d="M173.298 12.6246H111.702C110.977 12.6246 110.282 12.9124 109.769 13.4248C109.256 13.9372 108.968 14.6322 108.968 15.357V56.7898C108.968 57.515 109.256 58.2105 109.768 58.7233C110.281 59.2361 110.977 59.5242 111.702 59.5242H117.539C118.368 59.5242 119.163 59.8535 119.749 60.4395C120.335 61.0256 120.664 61.8204 120.664 62.6492V68.8992L129.125 60.4375C129.416 60.1473 129.76 59.9171 130.139 59.7601C130.518 59.6031 130.925 59.5222 131.335 59.5223H173.298C174.022 59.5216 174.717 59.2333 175.23 58.7206C175.742 58.2078 176.03 57.5127 176.03 56.7879V15.357C176.029 14.6326 175.741 13.9379 175.229 13.4256C174.717 12.9133 174.022 12.6252 173.298 12.6246Z" fill="#F7D119"/>
<path d="M64.5531 42.6402C64.8381 42.2103 65.2251 41.8575 65.6796 41.6135C66.1341 41.3695 66.642 41.2418 67.1578 41.2418H102.72V30.0086H21.3402C20.2107 30.0097 19.1277 30.4589 18.329 31.2576C17.5302 32.0563 17.0809 33.1392 17.0797 34.2688V49.8117H59.7996L64.5531 42.6402Z" fill="white"/>
<path d="M36.6754 132.793C31.2762 132.792 25.9978 134.392 21.5081 137.391C17.0183 140.39 13.5187 144.653 11.452 149.641C9.38525 154.629 8.8442 160.118 9.89725 165.414C10.9503 170.709 13.5502 175.574 17.368 179.391C21.1858 183.209 26.0501 185.809 31.3457 186.862C36.6412 187.915 42.1301 187.374 47.1181 185.307C52.1062 183.241 56.3692 179.741 59.3682 175.251C62.3671 170.762 63.9672 165.483 63.966 160.084C63.9563 152.849 61.0779 145.913 55.962 140.797C50.8462 135.681 43.9103 132.803 36.6754 132.793Z" fill="#FF6969"/>
<path d="M153.852 104.379V91.2719H101.526C101.331 91.2745 101.144 91.3532 101.006 91.4914C100.868 91.6295 100.79 91.816 100.787 92.0113V186.647C100.79 186.842 100.868 187.029 101.006 187.167C101.144 187.305 101.331 187.383 101.526 187.386H172.921C173.116 187.383 173.303 187.305 173.441 187.167C173.579 187.029 173.658 186.842 173.66 186.647V155.791L168.596 164.559C168.412 164.879 168.172 165.163 167.888 165.399L153.837 177.079C153.346 177.487 152.741 177.735 152.105 177.79C151.468 177.844 150.831 177.702 150.277 177.383C149.724 177.064 149.282 176.582 149.01 176.004C148.739 175.426 148.651 174.779 148.759 174.149L151.848 156.134C151.911 155.77 152.037 155.42 152.221 155.1L173.66 117.963V111.367H160.841C158.988 111.365 157.212 110.628 155.901 109.318C154.591 108.008 153.854 106.232 153.852 104.379Z" fill="#D4E4B5"/>
<path d="M156.977 85.0219C157.391 85.0218 157.801 85.1041 158.183 85.2641C158.566 85.424 158.912 85.6584 159.203 85.9535L172.695 99.6441V65.7723H132.627L119.747 78.6531C119.31 79.0894 118.753 79.3864 118.148 79.5067C117.542 79.627 116.914 79.5651 116.344 79.3289C115.773 79.0927 115.285 78.6927 114.942 78.1795C114.598 77.6663 114.415 77.0628 114.414 76.4453V65.7723H111.704C109.322 65.7702 107.038 64.823 105.353 63.1385C103.669 61.4541 102.722 59.1701 102.72 56.7879V47.491H68.8355L64.082 54.6633C63.797 55.0933 63.41 55.446 62.9555 55.69C62.501 55.934 61.9932 56.0617 61.4773 56.0617H17.0797V132.884C22.7828 128.776 29.6326 126.563 36.6615 126.559C43.6904 126.554 50.5429 128.759 56.2509 132.861C61.9589 136.962 66.2338 142.754 68.4717 149.417C70.7095 156.08 70.7972 163.278 68.7223 169.993H94.5371V92.0113C94.5392 90.1583 95.2762 88.3818 96.5864 87.0715C97.8967 85.7612 99.6732 85.0241 101.526 85.0219H156.977Z" fill="#467599"/>
<path d="M26.5883 39.9156C26.5871 39.2969 26.7695 38.6918 27.1122 38.1767C27.455 37.6616 27.9428 37.2598 28.514 37.022C29.0852 36.7841 29.714 36.721 30.3211 36.8406C30.9281 36.9602 31.486 37.2571 31.9243 37.6938C32.3626 38.1305 32.6615 38.6874 32.7833 39.294C32.9051 39.9006 32.8443 40.5297 32.6085 41.1017C32.3728 41.6737 31.9727 42.163 31.4589 42.5076C30.9451 42.8523 30.3406 43.0368 29.7219 43.0379C28.8931 43.0368 28.0984 42.7078 27.5113 42.1228C26.9242 41.5379 26.5924 40.7444 26.5883 39.9156ZM40.0648 43.0379C40.684 43.039 41.2896 42.8564 41.8049 42.5131C42.3202 42.1699 42.7221 41.6814 42.9596 41.1096C43.1971 40.5377 43.2595 39.9083 43.139 39.3009C43.0185 38.6936 42.7204 38.1357 42.2826 37.6978C41.8448 37.26 41.2869 36.962 40.6795 36.8415C40.0722 36.7209 39.4427 36.7834 38.8709 37.0209C38.2991 37.2584 37.8106 37.6602 37.4673 38.1755C37.124 38.6908 36.9414 39.2964 36.9426 39.9156C36.9454 40.7426 37.275 41.5349 37.8596 42.1198C38.4442 42.7047 39.2363 43.0347 40.0633 43.0379H40.0648ZM50.4066 43.0379C51.0258 43.039 51.6314 42.8563 52.1466 42.513C52.6619 42.1696 53.0637 41.6811 53.3011 41.1093C53.5385 40.5374 53.6009 39.908 53.4804 39.3007C53.3598 38.6934 53.0617 38.1355 52.6239 37.6977C52.186 37.2599 51.6281 36.9619 51.0208 36.8414C50.4135 36.721 49.784 36.7834 49.2122 37.0209C48.6404 37.2584 48.152 37.6603 47.8087 38.1756C47.4654 38.6909 47.2828 39.2965 47.284 39.9156C47.2847 40.7433 47.6137 41.5368 48.1989 42.1222C48.784 42.7075 49.5774 43.0368 50.4051 43.0379H50.4066ZM54.4617 160.083C54.4619 160.65 54.308 161.206 54.0163 161.692C53.7246 162.178 53.3062 162.576 52.8059 162.842L28.4008 175.841C27.9246 176.095 27.3909 176.221 26.8515 176.207C26.3122 176.193 25.7857 176.04 25.3231 175.762C24.8605 175.485 24.4778 175.092 24.212 174.623C23.9463 174.153 23.8066 173.623 23.8066 173.083V147.096C23.8066 146.557 23.9463 146.027 24.212 145.557C24.4778 145.088 24.8605 144.695 25.3231 144.417C25.7857 144.139 26.3122 143.986 26.8515 143.972C27.3909 143.959 27.9246 144.085 28.4008 144.338L52.8023 157.325C53.3028 157.591 53.7215 157.988 54.0135 158.474C54.3055 158.96 54.4599 159.516 54.4602 160.083H54.4617ZM44.6852 160.087L30.0566 152.302V167.878L44.6852 160.087ZM83.8574 69.4789V113.737C83.8574 114.566 83.5282 115.36 82.9421 115.946C82.3561 116.532 81.5612 116.862 80.7324 116.862H30.4969C29.6681 116.862 28.8732 116.532 28.2872 115.946C27.7011 115.36 27.3719 114.566 27.3719 113.737V69.4789C27.3719 68.6501 27.7011 67.8552 28.2872 67.2692C28.8732 66.6831 29.6681 66.3539 30.4969 66.3539H80.7312C81.1417 66.3537 81.5482 66.4345 81.9275 66.5914C82.3068 66.7484 82.6514 66.9786 82.9417 67.2688C83.232 67.559 83.4623 67.9035 83.6194 68.2827C83.7766 68.662 83.8574 69.0684 83.8574 69.4789ZM33.623 72.6039V105.732L44.5523 93.8672C44.8406 93.5543 45.1898 93.3036 45.5784 93.1304C45.967 92.9573 46.3869 92.8653 46.8123 92.8601C47.2377 92.8549 47.6597 92.9366 48.0524 93.1003C48.4451 93.2639 48.8002 93.506 49.0961 93.8117L52.5512 97.3824L63.7738 85.1977C64.0621 84.8847 64.4113 84.6339 64.7999 84.4607C65.1885 84.2874 65.6084 84.1954 66.0339 84.1901C66.4593 84.1849 66.8814 84.2666 67.2741 84.4303C67.6669 84.5939 68.0221 84.836 68.318 85.1418L77.6074 94.7394V72.6039H33.623ZM46.9074 100.537L37.6258 110.61H56.652L46.9074 100.537ZM77.6105 110.61V103.728L66.1289 91.8684L56.9047 101.883L65.3484 110.61H77.6105ZM41.5035 83.4078C41.5035 81.7955 41.9816 80.2194 42.8774 78.8788C43.7732 77.5382 45.0463 76.4933 46.5359 75.8764C48.0255 75.2594 49.6646 75.0979 51.246 75.4125C52.8273 75.7271 54.2799 76.5035 55.4199 77.6436C56.56 78.7838 57.3363 80.2363 57.6508 81.8177C57.9653 83.399 57.8038 85.0381 57.1868 86.5277C56.5697 88.0173 55.5248 89.2904 54.1842 90.1861C52.8435 91.0818 51.2674 91.5598 49.6551 91.5598C47.4933 91.5581 45.4205 90.6988 43.8916 89.1704C42.3628 87.6421 41.5028 85.5696 41.5004 83.4078H41.5035ZM47.7535 83.4078C47.7534 83.784 47.8649 84.1518 48.0739 84.4646C48.2828 84.7775 48.5799 85.0213 48.9274 85.1653C49.275 85.3093 49.6574 85.347 50.0264 85.2736C50.3954 85.2002 50.7343 85.0191 51.0003 84.7531C51.2664 84.4871 51.4475 84.1481 51.5209 83.7792C51.5943 83.4102 51.5566 83.0277 51.4126 82.6802C51.2686 82.3326 51.0247 82.0356 50.7119 81.8266C50.3991 81.6177 50.0313 81.5062 49.6551 81.5062C49.1504 81.506 48.6663 81.7062 48.3091 82.0628C47.952 82.4193 47.751 82.9031 47.7504 83.4078H47.7535ZM195.616 117.778L179.913 144.968V186.648C179.911 188.501 179.174 190.278 177.864 191.588C176.553 192.898 174.777 193.635 172.924 193.637H101.526C99.6732 193.635 97.8966 192.898 96.5863 191.588C95.276 190.278 94.5389 188.501 94.5367 186.648V176.241H66.0602C63.8127 180.337 60.7343 183.918 57.0223 186.755C53.3103 189.591 49.0466 191.621 44.5045 192.714C39.9623 193.807 35.2419 193.938 30.6459 193.1C26.0499 192.263 21.6796 190.474 17.8152 187.848C13.9508 185.223 10.6776 181.82 8.20529 177.856C5.73299 173.892 4.11618 169.455 3.45851 164.83C2.80084 160.204 3.1168 155.493 4.38616 150.997C5.65551 146.501 7.85025 142.319 10.8297 138.721V34.2687C10.833 31.4822 11.9414 28.8108 13.9118 26.8405C15.8822 24.8701 18.5537 23.7618 21.3402 23.7586H102.72V15.357C102.722 12.9752 103.67 10.6918 105.354 9.00777C107.038 7.32377 109.322 6.37677 111.704 6.3746H173.297C175.679 6.37688 177.963 7.32417 179.648 9.00858C181.332 10.693 182.279 12.9769 182.282 15.359V56.7898C182.282 58.1276 181.982 59.4485 181.406 60.6556C180.829 61.8627 179.99 62.9255 178.949 63.766V105.985L179.012 106.05C179.394 106.438 179.667 106.919 179.805 107.446C181.24 105.502 183.363 104.181 185.74 103.753C188.118 103.324 190.569 103.822 192.591 105.144C194.613 106.465 196.053 108.51 196.615 110.859C197.177 113.209 196.819 115.684 195.615 117.778H195.616ZM156.35 166.864L160.445 163.459L157.25 161.613L156.35 166.864ZM180.182 132L174.624 128.795L159.197 155.52L164.747 158.727L180.182 132ZM183.307 126.588L184.45 124.609L178.892 121.402L177.749 123.381L183.307 126.588ZM160.102 104.379C160.104 104.574 160.183 104.761 160.321 104.899C160.459 105.037 160.646 105.116 160.841 105.118H169.318L160.102 95.7691V104.379ZM108.969 56.7898C108.969 57.515 109.257 58.2105 109.77 58.7233C110.282 59.2361 110.978 59.5242 111.703 59.5242H117.538C118.367 59.5242 119.162 59.8535 119.748 60.4395C120.334 61.0256 120.663 61.8204 120.663 62.6492V68.8992L129.124 60.4375C129.414 60.1473 129.759 59.9171 130.138 59.76C130.517 59.603 130.924 59.5222 131.334 59.5223H173.297C174.022 59.5223 174.718 59.2342 175.231 58.7214C175.744 58.2086 176.032 57.5131 176.032 56.7879V15.357C176.031 14.6322 175.743 13.9372 175.23 13.4248C174.717 12.9124 174.022 12.6246 173.297 12.6246H111.702C110.977 12.6246 110.282 12.9124 109.769 13.4248C109.256 13.9372 108.968 14.6322 108.968 15.357L108.969 56.7898ZM17.0793 34.2687V49.8117H59.7996L64.5531 42.6402C64.8381 42.2103 65.2251 41.8575 65.6796 41.6135C66.1341 41.3695 66.642 41.2418 67.1578 41.2418H102.72V30.0086H21.3402C20.2106 30.0097 19.1276 30.4589 18.3288 31.2576C17.53 32.0562 17.0806 33.1392 17.0793 34.2687ZM63.966 160.084C63.9649 154.685 62.3629 149.408 59.3627 144.92C56.3624 140.431 52.0985 136.934 47.1103 134.869C42.1221 132.804 36.6335 132.264 31.3387 133.319C26.0439 134.373 21.1807 136.974 17.364 140.792C13.5473 144.61 10.9486 149.475 9.89642 154.77C8.84429 160.065 9.386 165.553 11.4531 170.541C13.5201 175.528 17.0197 179.79 21.5092 182.789C25.9988 185.787 31.2766 187.387 36.6754 187.386C43.9128 187.378 50.8512 184.498 55.9678 179.38C61.0843 174.261 63.9608 167.321 63.966 160.084ZM94.5367 169.991V92.0113C94.5389 90.1583 95.276 88.3817 96.5863 87.0714C97.8966 85.7611 99.6731 85.024 101.526 85.0219H156.977C157.391 85.0217 157.801 85.1039 158.183 85.2639C158.566 85.4238 158.912 85.6583 159.203 85.9535L172.695 99.6441V65.7723H132.627L119.747 78.6531C119.31 79.0903 118.753 79.3881 118.147 79.5087C117.54 79.6294 116.912 79.5676 116.341 79.331C115.77 79.0945 115.282 78.6938 114.938 78.1798C114.595 77.6658 114.412 77.0615 114.412 76.4434V65.7723H111.702C109.32 65.7702 107.036 64.823 105.351 63.1385C103.667 61.4541 102.72 59.1701 102.718 56.7879V47.491H68.8355L64.082 54.6633C63.797 55.0932 63.41 55.446 62.9555 55.69C62.501 55.934 61.9932 56.0617 61.4773 56.0617H17.0793V132.884C22.7824 128.775 29.6323 126.563 36.6612 126.558C43.6902 126.554 50.5428 128.758 56.2509 132.86C61.959 136.962 66.234 142.753 68.4718 149.417C70.7097 156.08 70.7973 163.278 68.7223 169.993L94.5367 169.991ZM173.66 155.791L168.596 164.559C168.412 164.879 168.172 165.163 167.888 165.399L153.837 177.079C153.346 177.487 152.741 177.735 152.105 177.79C151.468 177.844 150.831 177.702 150.277 177.383C149.724 177.064 149.282 176.583 149.01 176.004C148.739 175.426 148.651 174.779 148.759 174.149L151.848 156.134C151.911 155.77 152.037 155.42 152.221 155.1L173.66 117.963V111.367H160.841C158.988 111.365 157.212 110.628 155.901 109.318C154.591 108.008 153.854 106.232 153.852 104.379V91.2719H101.526C101.331 91.2745 101.144 91.3532 101.006 91.4914C100.868 91.6295 100.789 91.816 100.787 92.0113V186.647C100.789 186.842 100.868 187.029 101.006 187.167C101.144 187.305 101.331 187.383 101.526 187.386H172.921C173.116 187.383 173.303 187.305 173.441 187.167C173.579 187.029 173.658 186.842 173.66 186.647V155.791ZM190.511 112.222C190.344 111.612 190.001 111.065 189.525 110.649C189.049 110.233 188.461 109.967 187.834 109.884C187.207 109.801 186.569 109.905 186.001 110.182C185.433 110.46 184.96 110.9 184.641 111.445L182.016 115.991L187.575 119.199L190.2 114.654C190.41 114.289 190.546 113.886 190.599 113.469C190.652 113.052 190.622 112.628 190.511 112.222ZM111.104 165.156H120.427C121.256 165.156 122.051 164.827 122.637 164.241C123.223 163.655 123.552 162.86 123.552 162.031C123.552 161.202 123.223 160.408 122.637 159.822C122.051 159.235 121.256 158.906 120.427 158.906H111.104C110.275 158.906 109.48 159.235 108.894 159.822C108.308 160.408 107.979 161.202 107.979 162.031C107.979 162.86 108.308 163.655 108.894 164.241C109.48 164.827 110.275 165.156 111.104 165.156ZM143.047 171.553H111.104C110.275 171.553 109.48 171.882 108.894 172.468C108.308 173.054 107.979 173.849 107.979 174.678C107.979 175.507 108.308 176.301 108.894 176.887C109.48 177.473 110.275 177.803 111.104 177.803H143.047C143.876 177.803 144.671 177.473 145.257 176.887C145.843 176.301 146.172 175.507 146.172 174.678C146.172 173.849 145.843 173.054 145.257 172.468C144.671 171.882 143.876 171.553 143.047 171.553ZM143.047 158.908H131.123C130.294 158.908 129.499 159.237 128.913 159.823C128.327 160.409 127.998 161.204 127.998 162.033C127.998 162.862 128.327 163.656 128.913 164.243C129.499 164.829 130.294 165.158 131.123 165.158H143.047C143.876 165.158 144.671 164.829 145.257 164.243C145.843 163.656 146.172 162.862 146.172 162.033C146.172 161.204 145.843 160.409 145.257 159.823C144.671 159.237 143.876 158.908 143.047 158.908ZM111.103 139.858H120.426C121.255 139.858 122.05 139.529 122.636 138.943C123.222 138.356 123.551 137.562 123.551 136.733C123.551 135.904 123.222 135.109 122.636 134.523C122.05 133.937 121.255 133.608 120.426 133.608H111.104C110.275 133.608 109.48 133.937 108.894 134.523C108.308 135.109 107.979 135.904 107.979 136.733C107.979 137.562 108.308 138.356 108.894 138.943C109.48 139.529 110.275 139.858 111.104 139.858H111.103ZM143.047 146.252H111.104C110.275 146.252 109.48 146.582 108.894 147.168C108.308 147.754 107.979 148.549 107.979 149.377C107.979 150.206 108.308 151.001 108.894 151.587C109.48 152.173 110.275 152.502 111.104 152.502H143.047C143.876 152.502 144.671 152.173 145.257 151.587C145.843 151.001 146.172 150.206 146.172 149.377C146.172 148.549 145.843 147.754 145.257 147.168C144.671 146.582 143.876 146.252 143.047 146.252ZM154.407 133.608H131.122C130.293 133.608 129.499 133.937 128.913 134.523C128.326 135.109 127.997 135.904 127.997 136.733C127.997 137.562 128.326 138.356 128.913 138.943C129.499 139.529 130.293 139.858 131.122 139.858H154.407C155.236 139.858 156.031 139.529 156.617 138.943C157.203 138.356 157.532 137.562 157.532 136.733C157.532 135.904 157.203 135.109 156.617 134.523C156.031 133.937 155.236 133.608 154.407 133.608ZM111.103 127.202H159.911C160.74 127.202 161.535 126.872 162.121 126.286C162.707 125.7 163.036 124.905 163.036 124.077C163.036 123.248 162.707 122.453 162.121 121.867C161.535 121.281 160.74 120.952 159.911 120.952H111.104C110.275 120.952 109.48 121.281 108.894 121.867C108.308 122.453 107.979 123.248 107.979 124.077C107.979 124.905 108.308 125.7 108.894 126.286C109.48 126.872 110.275 127.202 111.104 127.202H111.103ZM111.103 114.557H123.028C123.857 114.557 124.652 114.228 125.238 113.642C125.824 113.056 126.153 112.261 126.153 111.432C126.153 110.603 125.824 109.808 125.238 109.222C124.652 108.636 123.857 108.307 123.028 108.307H111.104C110.275 108.307 109.48 108.636 108.894 109.222C108.308 109.808 107.979 110.603 107.979 111.432C107.979 112.261 108.308 113.056 108.894 113.642C109.48 114.228 110.275 114.557 111.104 114.557H111.103ZM121.841 38.8086V29.5078C121.841 26.3559 124.555 23.7918 127.889 23.7918H143.191C148.309 23.7918 152.812 22.7305 156.907 20.5598V18.9668C156.907 18.138 157.237 17.3431 157.823 16.7571C158.409 16.171 159.204 15.8418 160.032 15.8418C160.861 15.8418 161.656 16.171 162.242 16.7571C162.828 17.3431 163.157 18.138 163.157 18.9668V49.3383C163.157 50.1671 162.828 50.9619 162.242 51.548C161.656 52.134 160.861 52.4633 160.032 52.4633C159.204 52.4633 158.409 52.134 157.823 51.548C157.237 50.9619 156.907 50.1671 156.907 49.3383V47.7562C152.812 45.5855 148.308 44.5242 143.191 44.5242H142.63V53.1691C142.63 53.9979 142.3 54.7928 141.714 55.3788C141.128 55.9649 140.333 56.2941 139.505 56.2941H133.216C132.494 56.2941 131.795 56.0445 131.236 55.5875C130.678 55.1305 130.295 54.4944 130.152 53.7871L128.284 44.5242H127.891C124.555 44.5242 121.841 41.9601 121.841 38.8086ZM136.38 44.5242H134.661L135.774 50.0441H136.381L136.38 44.5242ZM143.191 30.0418H142.63V38.2742H143.191C147.889 38.2354 152.549 39.1177 156.907 40.8711V27.4449C152.549 29.1983 147.889 30.0806 143.191 30.0418ZM128.091 38.2703L136.38 38.2726V30.0418H128.091V38.2703Z" fill="black"/>
<path d="M128.091 30.0418H136.38V38.2715H128.091V30.0418Z" fill="#FF6969"/>
<path d="M156.908 40.8711V27.4449C152.549 29.1983 147.889 30.0805 143.191 30.0418H142.63V38.2742H143.191C147.889 38.2355 152.549 39.1177 156.908 40.8711Z" fill="#72D1FB"/>
<path d="M30.0566 167.878L44.684 160.087L30.0566 152.302V167.878Z" fill="white"/>
<path d="M135.773 50.0442H136.38V44.5242H134.66L135.773 50.0442Z" fill="#41739F"/>
<path d="M157.25 161.613L156.35 166.864L160.445 163.459L157.25 161.613Z" fill="#F4BAA6"/>
<path d="M177.787 123.471L178.93 121.492L184.486 124.7L183.344 126.679L177.787 123.471Z" fill="#83A7C5"/>
<path d="M159.197 155.52L164.747 158.727L180.182 132L174.625 128.795L159.197 155.52Z" fill="#FFE958"/>
<path d="M189.023 110.277C188.286 109.856 187.413 109.743 186.593 109.961C185.772 110.18 185.071 110.712 184.641 111.444L182.016 115.989L187.575 119.198L190.2 114.652C190.619 113.915 190.731 113.042 190.51 112.223C190.29 111.404 189.756 110.705 189.023 110.277V110.277Z" fill="#FF6969"/>
<path d="M49.652 85.3098C50.0281 85.3098 50.3959 85.1984 50.7087 84.9894C51.0216 84.7805 51.2654 84.4835 51.4094 84.1359C51.5534 83.7884 51.5911 83.406 51.5178 83.037C51.4445 82.668 51.2633 82.3291 50.9974 82.0631C50.7314 81.797 50.3925 81.6159 50.0235 81.5424C49.6546 81.469 49.2722 81.5067 48.9246 81.6506C48.577 81.7945 48.28 82.0383 48.071 82.3511C47.862 82.6639 47.7504 83.0316 47.7504 83.4078C47.751 83.912 47.9515 84.3953 48.308 84.7519C48.6645 85.1084 49.1478 85.309 49.652 85.3098Z" fill="white"/>
<path d="M56.9047 101.883L65.3484 110.61H77.6074V103.728L66.1289 91.8683L56.9047 101.883Z" fill="white"/>
<path d="M37.6258 110.61H56.652L46.9063 100.537L37.6258 110.61Z" fill="white"/>
<path d="M160.841 105.117H169.318L160.102 95.7692V104.379C160.104 104.574 160.183 104.76 160.321 104.898C160.46 105.036 160.646 105.115 160.841 105.117Z" fill="#CADEEF"/>
<path d="M33.6219 105.732L44.5523 93.8672C44.8406 93.5542 45.1898 93.3035 45.5785 93.1303C45.9671 92.9571 46.387 92.8651 46.8125 92.8599C47.2379 92.8547 47.6599 92.9364 48.0527 93.1001C48.4454 93.2638 48.8006 93.5059 49.0965 93.8117L52.5512 97.3824L63.7738 85.1976C64.0621 84.8846 64.4113 84.6338 64.7999 84.4605C65.1886 84.2872 65.6085 84.1952 66.034 84.1899C66.4595 84.1847 66.8816 84.2664 67.2744 84.4301C67.6672 84.5938 68.0225 84.8359 68.3184 85.1418L77.6074 94.7394V72.6039H33.6219V105.732ZM49.652 75.2562C51.2643 75.2562 52.8404 75.7342 54.1811 76.6299C55.5217 77.5256 56.5666 78.7988 57.1837 80.2884C57.8007 81.778 57.9622 83.4171 57.6477 84.9985C57.3331 86.5798 56.5567 88.0324 55.4166 89.1725C54.2765 90.3126 52.824 91.089 51.2426 91.4035C49.6613 91.718 48.0221 91.5566 46.5325 90.9395C45.043 90.3225 43.7698 89.2776 42.8741 87.9369C41.9784 86.5963 41.5003 85.0201 41.5004 83.4078C41.5031 81.2467 42.3628 79.1749 43.8909 77.6467C45.419 76.1186 47.4908 75.2589 49.652 75.2562Z" fill="#9DD46F"/>
</svg>
