<svg width="200" height="200" viewBox="0 0 200 200" fill="none" xmlns="http://www.w3.org/2000/svg">
<path d="M134.375 21.875H65.625C58.7214 21.875 53.125 27.4714 53.125 34.375V178.125C53.125 185.029 58.7214 190.625 65.625 190.625H134.375C141.279 190.625 146.875 185.029 146.875 178.125V34.375C146.875 27.4714 141.279 21.875 134.375 21.875Z" fill="#E0E0DE"/>
<path d="M53.125 40.625H146.875V165.625H53.125V40.625Z" fill="#348FD9"/>
<path d="M62.5902 190.211C63.5808 190.474 64.6002 190.613 65.625 190.625H134.375C137.69 190.625 140.87 189.308 143.214 186.964C145.558 184.62 146.875 181.44 146.875 178.125V165.625H73.0309L62.5902 190.211Z" fill="#D6D6D4"/>
<path d="M134.375 21.875H134.075L126.113 40.625H146.875V34.375C146.875 31.0598 145.558 27.8804 143.214 25.5362C140.87 23.192 137.69 21.875 134.375 21.875Z" fill="#D6D6D4"/>
<path d="M73.0309 165.625H146.875V40.625H126.113L73.0309 165.625Z" fill="#3086CD"/>
<path d="M90.625 146.875V128.125C90.625 124.81 89.308 121.63 86.9638 119.286C84.6196 116.942 81.4402 115.625 78.125 115.625H71.875L75 103.125L53.125 115.625V159.375H78.125C81.4402 159.375 84.6196 158.058 86.9638 155.714C89.308 153.37 90.625 150.19 90.625 146.875Z" fill="#3086CD"/>
<path d="M167.27 110.813L146.875 84.375V134.375L132.812 120.312C130.74 118.24 127.93 117.076 125 117.076C122.07 117.076 119.259 118.24 117.187 120.312C115.115 122.385 113.951 125.195 113.951 128.125C113.951 131.055 115.115 133.865 117.187 135.938L137.5 156.25L136.1 158.351C132.878 163.183 131.277 168.915 131.529 174.717C131.781 180.519 133.872 186.09 137.5 190.625H175V131.389C175 123.821 172.253 116.51 167.27 110.813Z" fill="#FEC9A3"/>
<path d="M78.125 71.875H53.125L56.25 87.5L34.375 71.875H21.875C18.5598 71.875 15.3804 70.558 13.0362 68.2138C10.692 65.8696 9.375 62.6902 9.375 59.375V21.875C9.375 18.5598 10.692 15.3804 13.0362 13.0362C15.3804 10.692 18.5598 9.375 21.875 9.375H78.125C81.4402 9.375 84.6196 10.692 86.9638 13.0362C89.308 15.3804 90.625 18.5598 90.625 21.875V59.375C90.625 62.6902 89.308 65.8696 86.9638 68.2138C84.6196 70.558 81.4402 71.875 78.125 71.875Z" fill="#FFB531"/>
<path d="M59.375 78.125H84.375C87.6902 78.125 90.8696 76.808 93.2138 74.4638C95.558 72.1196 96.875 68.9402 96.875 65.625V40.625H53.125V87.0535L62.5 93.75L59.375 78.125Z" fill="#3086CD"/>
<path d="M71.875 109.375H65.625L68.75 96.875L46.875 109.375H21.875C18.5598 109.375 15.3804 110.692 13.0362 113.036C10.692 115.38 9.375 118.56 9.375 121.875V140.625C9.375 143.94 10.692 147.12 13.0362 149.464C15.3804 151.808 18.5598 153.125 21.875 153.125H71.875C75.1902 153.125 78.3696 151.808 80.7138 149.464C83.058 147.12 84.375 143.94 84.375 140.625V121.875C84.375 118.56 83.058 115.38 80.7138 113.036C78.3696 110.692 75.1902 109.375 71.875 109.375Z" fill="#60D1E0"/>
<path d="M71.875 109.375H71.2734C58.4883 128.615 40.498 143.511 26.6641 153.125H71.875C75.1902 153.125 78.3696 151.808 80.7138 149.464C83.058 147.12 84.375 143.94 84.375 140.625V121.875C84.375 118.56 83.058 115.38 80.7138 113.036C78.3696 110.692 75.1902 109.375 71.875 109.375Z" fill="#5AC6D4"/>
<path d="M159.375 150C158.965 150.001 158.558 149.92 158.179 149.763C157.8 149.606 157.455 149.375 157.166 149.084L144.666 136.584C144.096 135.995 143.781 135.206 143.789 134.386C143.796 133.567 144.124 132.783 144.704 132.204C145.283 131.624 146.067 131.296 146.886 131.289C147.706 131.281 148.495 131.596 149.084 132.166L161.584 144.666C162.021 145.103 162.319 145.659 162.439 146.266C162.56 146.872 162.498 147.5 162.261 148.071C162.025 148.642 161.625 149.13 161.111 149.473C160.597 149.817 159.993 150 159.375 150Z" fill="#F7A468"/>
<path d="M86.2633 12.4586C64.6234 39.4699 34.375 56.25 12.5828 67.6645C13.7452 68.9842 15.1747 70.0421 16.7766 70.768C18.3785 71.4938 20.1163 71.8712 21.875 71.875H34.375L56.25 87.5L53.125 71.875H78.125C81.4402 71.875 84.6196 70.5581 86.9638 68.2139C89.308 65.8697 90.625 62.6902 90.625 59.375V21.875C90.6204 20.0837 90.2282 18.3146 89.4753 16.6892C88.7224 15.0638 87.6266 13.6206 86.2633 12.4586Z" fill="#FFA912"/>
<path d="M31.25 37.5H56.25V56.25H31.25V37.5Z" fill="#F35244"/>
<path d="M35.9375 37.5C40.2522 37.5 43.75 34.0022 43.75 29.6875C43.75 25.3728 40.2522 21.875 35.9375 21.875C31.6228 21.875 28.125 25.3728 28.125 29.6875C28.125 34.0022 31.6228 37.5 35.9375 37.5Z" fill="#DE4132"/>
<path d="M51.5625 37.5C55.8772 37.5 59.375 34.0022 59.375 29.6875C59.375 25.3728 55.8772 21.875 51.5625 21.875C47.2478 21.875 43.75 25.3728 43.75 29.6875C43.75 34.0022 47.2478 37.5 51.5625 37.5Z" fill="#DE4132"/>
<path d="M56.25 43.75L68.75 37.5V56.25L56.25 50V43.75Z" fill="#DE4132"/>
<path d="M146.875 84.375V117.067L162.703 104.892L146.875 84.375Z" fill="#FEC093"/>
<path d="M190.625 46.875V84.375C190.625 87.6902 189.308 90.8696 186.964 93.2138C184.62 95.558 181.44 96.875 178.125 96.875H162.5L140.625 112.5L143.75 96.875H115.625C113.983 96.876 112.357 96.5534 110.84 95.9256C109.323 95.2978 107.945 94.3771 106.784 93.2161C105.623 92.0552 104.702 90.6768 104.074 89.1598C103.447 87.6427 103.124 86.0168 103.125 84.375V46.875C103.125 43.5598 104.442 40.3804 106.786 38.0362C109.13 35.692 112.31 34.375 115.625 34.375H178.125C179.767 34.3737 181.393 34.6961 182.91 35.3238C184.427 35.9515 185.806 36.8722 186.967 38.0332C188.128 39.1942 189.049 40.5727 189.676 42.0899C190.304 43.6071 190.626 45.2331 190.625 46.875Z" fill="#4DB7E5"/>
<path d="M190.625 46.875V84.375C190.625 87.6902 189.308 90.8696 186.964 93.2138C184.62 95.558 181.44 96.875 178.125 96.875H162.5L140.625 112.5L143.75 96.875H115.625C113.46 96.8778 111.331 96.3164 109.449 95.2461C138.637 81.4258 164.871 62.1445 184.344 36.0273C186.253 37.1224 187.839 38.7021 188.942 40.6069C190.045 42.5117 190.626 44.6739 190.625 46.875Z" fill="#48ADD9"/>
<path d="M153.125 65.625C158.303 65.625 162.5 61.4277 162.5 56.25C162.5 51.0723 158.303 46.875 153.125 46.875C147.947 46.875 143.75 51.0723 143.75 56.25C143.75 61.4277 147.947 65.625 153.125 65.625Z" fill="#F35244"/>
<path d="M190.625 84.375C190.625 87.6902 189.308 90.8696 186.964 93.2138C184.62 95.558 181.44 96.875 178.125 96.875H162.5L140.625 112.5L143.75 96.875H115.625C113.983 96.876 112.357 96.5534 110.84 95.9256C109.323 95.2978 107.945 94.3771 106.784 93.2161C105.623 92.0552 104.702 90.6768 104.074 89.1598C103.447 87.6427 103.124 86.0168 103.125 84.375L128.125 65.625L142.336 76.2812L153.125 84.375L171.875 71.875L190.625 84.375Z" fill="#7EB457"/>
<path d="M190.625 84.375C190.625 87.6902 189.308 90.8696 186.964 93.2138C184.62 95.558 181.44 96.875 178.125 96.875H162.5L140.625 112.5L143.75 96.875H115.625C113.46 96.8778 111.331 96.3164 109.449 95.2461C120.921 89.8533 131.922 83.5095 142.336 76.2812L153.125 84.375L171.875 71.875L190.625 84.375Z" fill="#77AD50"/>
<path d="M96.875 175H103.125V181.25H96.875V175Z" fill="black"/>
<path d="M21.875 75H33.3742L54.4344 90.0437C54.9444 90.4078 55.5521 90.6101 56.1785 90.6244C56.805 90.6387 57.4213 90.4643 57.9474 90.124C58.4735 89.7836 58.8851 89.2929 59.1288 88.7156C59.3725 88.1384 59.4371 87.5011 59.3141 86.8867L56.9367 75H78.125C82.2675 74.9951 86.239 73.3474 89.1682 70.4182C92.0974 67.489 93.7451 63.5175 93.75 59.375V21.875C93.7451 17.7325 92.0974 13.761 89.1682 10.8318C86.239 7.90262 82.2675 6.25486 78.125 6.25H21.875C17.7325 6.25486 13.761 7.90262 10.8318 10.8318C7.90262 13.761 6.25486 17.7325 6.25 21.875V59.375C6.25486 63.5175 7.90262 67.489 10.8318 70.4182C13.761 73.3474 17.7325 74.9951 21.875 75ZM12.5 21.875C12.5028 19.3895 13.4914 17.0065 15.249 15.249C17.0065 13.4914 19.3895 12.5028 21.875 12.5H78.125C80.6105 12.5028 82.9935 13.4914 84.751 15.249C86.5086 17.0065 87.4972 19.3895 87.5 21.875V59.375C87.4972 61.8605 86.5086 64.2435 84.751 66.001C82.9935 67.7586 80.6105 68.7472 78.125 68.75H53.125C52.6626 68.75 52.206 68.8527 51.7881 69.0505C51.3702 69.2483 51.0014 69.5364 50.7083 69.894C50.4152 70.2516 50.2051 70.6698 50.0931 71.1184C49.9812 71.567 49.9702 72.0349 50.0609 72.4883L51.6359 80.3633L36.1906 69.3313C35.6607 68.9531 35.026 68.7499 34.375 68.75H21.875C19.3895 68.7472 17.0065 67.7586 15.249 66.001C13.4914 64.2435 12.5028 61.8605 12.5 59.375V21.875Z" fill="black"/>
<path d="M28.125 37.5V56.25C28.125 57.0788 28.4543 57.8736 29.0403 58.4597C29.6264 59.0457 30.4212 59.375 31.25 59.375H56.25C57.0788 59.375 57.8737 59.0457 58.4597 58.4597C59.0458 57.8736 59.375 57.0788 59.375 56.25V55.0566L67.3524 59.0453C67.8288 59.2835 68.3583 59.396 68.8904 59.3721C69.4226 59.3482 69.9398 59.1886 70.393 58.9085C70.8461 58.6284 71.2202 58.2372 71.4795 57.7719C71.7389 57.3066 71.8751 56.7827 71.875 56.25V37.5C71.8751 36.9673 71.7389 36.4434 71.4795 35.9781C71.2202 35.5128 70.8461 35.1215 70.393 34.8414C69.9398 34.5614 69.4226 34.4018 68.8904 34.3778C68.3583 34.3539 67.8288 34.4664 67.3524 34.7047L59.375 38.6933V37.5C59.375 37.448 59.3481 37.4047 59.3453 37.3535C60.3609 36.3319 61.1644 35.1194 61.7095 33.786C62.2546 32.4525 62.5305 31.0244 62.5214 29.5839C62.5123 28.1434 62.2183 26.7189 61.6564 25.3925C61.0945 24.066 60.2758 22.8638 59.2474 21.8551C58.219 20.8464 57.0011 20.0511 55.6641 19.5149C54.327 18.9788 52.8971 18.7124 51.4567 18.7312C50.0163 18.75 48.5938 19.0535 47.2711 19.6243C45.9485 20.1951 44.7518 21.0218 43.75 22.057C42.7482 21.0218 41.5515 20.1951 40.2289 19.6243C38.9062 19.0535 37.4838 18.75 36.0433 18.7312C34.6029 18.7124 33.173 18.9788 31.8359 19.5149C30.4989 20.0511 29.2811 20.8464 28.2526 21.8551C27.2242 22.8638 26.4055 24.066 25.8436 25.3925C25.2817 26.7189 24.9877 28.1434 24.9786 29.5839C24.9695 31.0244 25.2454 32.4525 25.7905 33.786C26.3356 35.1194 27.1391 36.3319 28.1547 37.3535C28.152 37.4047 28.125 37.448 28.125 37.5ZM53.125 53.125H34.375V40.625H53.125V53.125ZM65.625 42.5566V51.1933L59.375 48.0683V45.6816L65.625 42.5566ZM51.5625 25C52.4896 25 53.3959 25.2749 54.1667 25.79C54.9376 26.305 55.5384 27.0371 55.8932 27.8936C56.248 28.7502 56.3408 29.6927 56.1599 30.602C55.9791 31.5112 55.5326 32.3465 54.8771 33.002C54.2215 33.6576 53.3863 34.104 52.477 34.2849C51.5677 34.4658 50.6252 34.3729 49.7687 34.0182C48.9122 33.6634 48.1801 33.0626 47.665 32.2917C47.1499 31.5209 46.875 30.6146 46.875 29.6875C46.8764 28.4447 47.3706 27.2532 48.2494 26.3744C49.1282 25.4956 50.3197 25.0013 51.5625 25ZM35.9375 25C36.8646 25 37.7709 25.2749 38.5417 25.79C39.3126 26.305 39.9134 27.0371 40.2682 27.8936C40.623 28.7502 40.7158 29.6927 40.5349 30.602C40.3541 31.5112 39.9076 32.3465 39.2521 33.002C38.5965 33.6576 37.7613 34.104 36.852 34.2849C35.9427 34.4658 35.0002 34.3729 34.1437 34.0182C33.2872 33.6634 32.5551 33.0626 32.04 32.2917C31.5249 31.5209 31.25 30.6146 31.25 29.6875C31.2514 28.4447 31.7456 27.2532 32.6244 26.3744C33.5032 25.4956 34.6947 25.0013 35.9375 25Z" fill="black"/>
<path d="M178.125 31.25H149.684C148.959 27.7236 147.041 24.5549 144.252 22.2779C141.463 20.001 137.975 18.755 134.375 18.75H100V25H134.375C136.307 25.0059 138.191 25.6098 139.766 26.7289C141.342 27.848 142.532 29.4273 143.174 31.25H115.625C111.482 31.2549 107.511 32.9026 104.582 35.8318C101.653 38.761 100.005 42.7325 100 46.875V84.375C100.005 88.5175 101.653 92.489 104.582 95.4182C107.511 98.3474 111.482 99.9951 115.625 100H139.938L137.561 111.887C137.438 112.501 137.502 113.138 137.746 113.716C137.99 114.293 138.402 114.784 138.928 115.124C139.454 115.464 140.07 115.639 140.696 115.624C141.323 115.61 141.931 115.408 142.441 115.044L143.75 114.109V126.831L135.022 118.103C133.706 116.787 132.143 115.743 130.424 115.031C128.704 114.319 126.861 113.952 125 113.952C123.139 113.952 121.296 114.319 119.576 115.031C117.857 115.743 116.294 116.787 114.978 118.103C113.662 119.419 112.618 120.982 111.906 122.701C111.194 124.421 110.827 126.264 110.827 128.125C110.827 129.986 111.194 131.829 111.906 133.549C112.618 135.268 113.662 136.831 114.978 138.147L133.472 156.641C132.278 158.478 131.294 160.443 130.537 162.5H50V178.125C50.0049 182.268 51.6526 186.239 54.5818 189.168C57.511 192.097 61.4825 193.745 65.625 193.75H175C175.829 193.75 176.624 193.421 177.21 192.835C177.796 192.249 178.125 191.454 178.125 190.625V131.375C178.137 123.12 175.165 115.14 169.757 108.904L163.108 100.281L163.501 100H178.125C182.268 99.9951 186.239 98.3474 189.168 95.4182C192.097 92.489 193.745 88.5175 193.75 84.375V46.875C193.745 42.7325 192.097 38.761 189.168 35.8318C186.239 32.9026 182.268 31.2549 178.125 31.25ZM115.625 37.5H178.125C180.611 37.5028 182.993 38.4914 184.751 40.249C186.509 42.0065 187.497 44.3895 187.5 46.875V78.5359L173.609 69.275C173.095 68.9332 172.492 68.7508 171.875 68.7508C171.258 68.7508 170.655 68.9332 170.141 69.275L153.232 80.5469L130 63.125C129.459 62.7194 128.802 62.5001 128.126 62.5001C127.45 62.5001 126.793 62.7194 126.252 63.125L106.25 78.125V46.875C106.253 44.3895 107.241 42.0065 108.999 40.249C110.757 38.4914 113.139 37.5028 115.625 37.5ZM56.25 178.125V168.75H128.795C127.786 175.165 128.854 181.735 131.845 187.5H65.625C63.1395 187.497 60.7565 186.509 58.999 184.751C57.2414 182.993 56.2528 180.611 56.25 178.125ZM164.929 112.868C169.408 117.993 171.875 124.569 171.875 131.375V187.5H139.078C136.953 184.49 135.542 181.036 134.954 177.399C134.366 173.762 134.616 170.039 135.684 166.513C136.354 164.231 137.366 162.064 138.687 160.086L140.093 157.993C140.497 157.391 140.679 156.668 140.609 155.948C140.539 155.227 140.221 154.553 139.709 154.041L119.396 133.728C118.66 132.992 118.077 132.119 117.679 131.157C117.281 130.196 117.076 129.166 117.076 128.125C117.076 126.024 117.911 124.008 119.397 122.523C120.883 121.037 122.898 120.202 125 120.202C126.04 120.202 127.071 120.407 128.032 120.806C128.993 121.204 129.867 121.788 130.602 122.523L157.165 149.086L161.584 144.667L150 133.081V109.644L158.019 103.916L164.929 112.868ZM178.125 93.75H162.5C161.849 93.7499 161.214 93.9531 160.684 94.3313L145.239 105.363L146.814 97.4883C146.905 97.0349 146.894 96.567 146.782 96.1184C146.67 95.6698 146.46 95.2516 146.167 94.894C145.874 94.5364 145.505 94.2483 145.087 94.0505C144.669 93.8527 144.212 93.75 143.75 93.75H115.625C113.395 93.7442 111.241 92.9429 109.549 91.4904C107.857 90.0379 106.739 88.0294 106.396 85.8262L128.125 69.5312L151.25 86.875C151.767 87.2633 152.391 87.4815 153.038 87.4995C153.684 87.5176 154.32 87.3346 154.857 86.9758L171.875 75.6301L187.344 85.9426C186.975 88.1224 185.848 90.1017 184.161 91.5304C182.474 92.9592 180.336 93.7454 178.125 93.75Z" fill="black"/>
<path d="M153.125 68.75C155.597 68.75 158.014 68.0169 160.07 66.6434C162.125 65.2699 163.727 63.3176 164.673 61.0335C165.62 58.7495 165.867 56.2361 165.385 53.8114C164.903 51.3866 163.712 49.1593 161.964 47.4112C160.216 45.663 157.988 44.4725 155.564 43.9902C153.139 43.5079 150.626 43.7554 148.341 44.7015C146.057 45.6476 144.105 47.2498 142.732 49.3054C141.358 51.361 140.625 53.7777 140.625 56.25C140.629 59.5641 141.947 62.7415 144.29 65.085C146.633 67.4284 149.811 68.7465 153.125 68.75ZM153.125 50C154.361 50 155.57 50.3666 156.597 51.0533C157.625 51.7401 158.426 52.7162 158.899 53.8582C159.372 55.0003 159.496 56.2569 159.255 57.4693C159.014 58.6817 158.419 59.7953 157.544 60.6694C156.67 61.5435 155.557 62.1388 154.344 62.3799C153.132 62.6211 151.875 62.4973 150.733 62.0243C149.591 61.5512 148.615 60.7501 147.928 59.7223C147.242 58.6945 146.875 57.4861 146.875 56.25C146.877 54.593 147.536 53.0044 148.708 51.8328C149.879 50.6611 151.468 50.002 153.125 50Z" fill="black"/>
<path d="M21.875 156.25H71.875C76.0175 156.245 79.989 154.597 82.9182 151.668C85.8474 148.739 87.4951 144.768 87.5 140.625V121.875C87.4951 117.732 85.8474 113.761 82.9182 110.832C79.989 107.903 76.0175 106.255 71.875 106.25H69.6289L71.7805 97.6332C71.9288 97.0392 71.8993 96.4148 71.6958 95.8375C71.4924 95.2601 71.1238 94.7552 70.6358 94.3855C70.1479 94.0158 69.5622 93.7975 68.9513 93.7578C68.3404 93.7181 67.7313 93.8587 67.1996 94.1621L46.0449 106.25H21.875C17.7325 106.255 13.761 107.903 10.8318 110.832C7.90262 113.761 6.25486 117.732 6.25 121.875V140.625C6.25486 144.768 7.90262 148.739 10.8318 151.668C13.761 154.597 17.7325 156.245 21.875 156.25ZM12.5 121.875C12.5028 119.389 13.4914 117.006 15.249 115.249C17.0065 113.491 19.3895 112.503 21.875 112.5H46.875C47.4189 112.5 47.9533 112.358 48.4254 112.088L63.9434 103.221L62.5945 108.616C62.4793 109.077 62.4705 109.558 62.5689 110.023C62.6673 110.487 62.8702 110.923 63.1624 111.297C63.4545 111.672 63.8281 111.975 64.2548 112.183C64.6815 112.391 65.1501 112.5 65.625 112.5H71.875C74.3605 112.503 76.7435 113.491 78.501 115.249C80.2586 117.006 81.2472 119.389 81.25 121.875V140.625C81.2472 143.111 80.2586 145.493 78.501 147.251C76.7435 149.009 74.3605 149.997 71.875 150H21.875C19.3895 149.997 17.0065 149.009 15.249 147.251C13.4914 145.493 12.5028 143.111 12.5 140.625V121.875Z" fill="black"/>
<path d="M18.75 121.875H53.125V128.125H18.75V121.875Z" fill="black"/>
<path d="M59.375 121.875H75V128.125H59.375V121.875Z" fill="black"/>
<path d="M18.75 134.375H75V140.625H18.75V134.375Z" fill="black"/>
</svg>
